<svg width="32" height="32" viewBox="0 0 32 32" fill="none" xmlns="http://www.w3.org/2000/svg">
<rect width="32" height="32" rx="10" fill="#F5FAFF"/>
<path d="M8.88867 9.61108C8.88867 8.94804 9.15206 8.31216 9.62091 7.84332C10.0897 7.37448 10.7256 7.11108 11.3887 7.11108H21.3887C22.0517 7.11108 22.6876 7.37448 23.1564 7.84332C23.6253 8.31216 23.8887 8.94804 23.8887 9.61108V23.3611C23.8887 23.6926 23.757 24.0105 23.5226 24.245C23.2881 24.4794 22.9702 24.6111 22.6387 24.6111H10.1387C10.1387 24.9426 10.2704 25.2605 10.5048 25.495C10.7392 25.7294 11.0572 25.8611 11.3887 25.8611H23.2637C23.4294 25.8611 23.5884 25.9269 23.7056 26.0441C23.8228 26.1614 23.8887 26.3203 23.8887 26.4861C23.8887 26.6518 23.8228 26.8108 23.7056 26.928C23.5884 27.0452 23.4294 27.1111 23.2637 27.1111H11.3887C10.7256 27.1111 10.0897 26.8477 9.62091 26.3789C9.15206 25.91 8.88867 25.2741 8.88867 24.6111V9.61108ZM16.3887 10.8611C16.2229 10.8611 16.0639 10.9269 15.9467 11.0441C15.8295 11.1614 15.7637 11.3203 15.7637 11.4861V16.4861C15.7637 16.6518 15.8295 16.8108 15.9467 16.928C16.0639 17.0452 16.2229 17.1111 16.3887 17.1111C16.5544 17.1111 16.7134 17.0452 16.8306 16.928C16.9478 16.8108 17.0137 16.6518 17.0137 16.4861V11.4861C17.0137 11.3203 16.9478 11.1614 16.8306 11.0441C16.7134 10.9269 16.5544 10.8611 16.3887 10.8611ZM17.3262 19.9236C17.3262 19.6749 17.2274 19.4365 17.0516 19.2607C16.8758 19.0849 16.6373 18.9861 16.3887 18.9861C16.14 18.9861 15.9016 19.0849 15.7258 19.2607C15.5499 19.4365 15.4512 19.6749 15.4512 19.9236C15.4512 20.1722 15.5499 20.4107 15.7258 20.5865C15.9016 20.7623 16.14 20.8611 16.3887 20.8611C16.6373 20.8611 16.8758 20.7623 17.0516 20.5865C17.2274 20.4107 17.3262 20.1722 17.3262 19.9236Z" fill="#499F97"/>
</svg>
