<svg width="32" height="32" viewBox="0 0 32 32" fill="none" xmlns="http://www.w3.org/2000/svg">
<rect width="32" height="32" rx="10" fill="#F5FAFF"/>
<path d="M15.5 6C16.2956 6 17.0587 6.31607 17.6213 6.87868C18.1839 7.44129 18.5 8.20435 18.5 9C18.5 9.79565 18.1839 10.5587 17.6213 11.1213C17.0587 11.6839 16.2956 12 15.5 12C14.7043 12 13.9413 11.6839 13.3787 11.1213C12.8161 10.5587 12.5 9.79565 12.5 9C12.5 8.20435 12.8161 7.44129 13.3787 6.87868C13.9413 6.31607 14.7043 6 15.5 6ZM15.5 13C17.13 13 18.62 13.35 20 14.05C21.34 14.76 22 15.61 22 16.61V22.38C22 23.5 21.14 24.44 19.39 25.19V23C19.39 22.05 18.53 21.38 16.81 20.97C16.25 20.84 15.81 20.78 15.5 20.78C14.63 20.78 13.8 20.95 13.04 21.3C12.27 21.64 11.81 22.08 11.66 22.61C13 23.14 14.28 23.41 15.5 23.41L16.5 23.31V25.94L15.5 26C14.1613 26.0019 12.8367 25.7261 11.61 25.19C9.86 24.44 9 23.5 9 22.38V16.61C9 15.61 9.66 14.76 11 14.05C12.38 13.35 13.88 13 15.5 13ZM15.5 15C14.9696 15 14.4609 15.2107 14.0858 15.5858C13.7107 15.9609 13.5 16.4696 13.5 17C13.5 17.5304 13.7107 18.0391 14.0858 18.4142C14.4609 18.7893 14.9696 19 15.5 19C16.0304 19 16.5391 18.7893 16.9142 18.4142C17.2893 18.0391 17.5 17.5304 17.5 17C17.5 16.4696 17.2893 15.9609 16.9142 15.5858C16.5391 15.2107 16.0304 15 15.5 15Z" fill="#499F97"/>
</svg>
